HIERARCHY
ROOT Hips
{
  OFFSET 267.745 86.9975 -272.335
  CHANNELS 6 Xposition Yposition Zposition Zrotation Xrotation Yrotation
  JOINT LeftUpLeg
  {
    OFFSET 8.64259 1.95398 -2.38835
    CHANNELS 3 Zrotation Xrotation Yrotation
    JOINT LeftLeg
    {
      OFFSET 43.7702 0 0
      CHANNELS 3 Zrotation Xrotation Yrotation
      JOINT LeftFoot
      {
        OFFSET 40.6238 0 0
        CHANNELS 3 Zrotation Xrotation Yrotation
        JOINT LeftToeBase
        {
          OFFSET 12.7242 0 0
          CHANNELS 3 Zrotation Xrotation Yrotation
          End Site
          {
            OFFSET 0 0 0
          }
        }
      }
    }
  }
  JOINT RightUpLeg
  {
    OFFSET -8.2249 1.95398 -2.59336
    CHANNELS 3 Zrotation Xrotation Yrotation
    JOINT RightLeg
    {
      OFFSET 43.5653 0 0
      CHANNELS 3 Zrotation Xrotation Yrotation
      JOINT RightFoot
      {
        OFFSET 40.6238 0 0
        CHANNELS 3 Zrotation Xrotation Yrotation
        JOINT RightToeBase
        {
          OFFSET 12.7242 0 0
          CHANNELS 3 Zrotation Xrotation Yrotation
          End Site
          {
            OFFSET 0 0 0
          }
        }
      }
    }
  }
  JOINT Spine
  {
    OFFSET 0.165834 0.87714 6.61349
    CHANNELS 3 Zrotation Xrotation Yrotation
    JOINT Spine1
    {
      OFFSET 7.38963 1.71661e-005 0
      CHANNELS 3 Zrotation Xrotation Yrotation
      JOINT Spine2
      {
        OFFSET 11.9445 1.14441e-005 0
        CHANNELS 3 Zrotation Xrotation Yrotation
        JOINT Spine3
        {
          OFFSET 14.7254 4.19617e-005 0
          CHANNELS 3 Zrotation Xrotation Yrotation
          JOINT Spine4
          {
            OFFSET 10.9679 0 0
            CHANNELS 3 Zrotation Xrotation Yrotation
            JOINT RightShoulder
            {
              OFFSET 2.46616 -1.6653 3.69651
              CHANNELS 3 Zrotation Xrotation Yrotation
              JOINT RightArm
              {
                OFFSET 13.0012 0 0
                CHANNELS 3 Zrotation Xrotation Yrotation
                JOINT RightForeArm
                {
                  OFFSET 28.7848 1.52588e-005 0
                  CHANNELS 3 Zrotation Xrotation Yrotation
                  JOINT RightHand
                  {
                    OFFSET 26.5688 1.52588e-005 0
                    CHANNELS 3 Zrotation Xrotation Yrotation
                    End Site
                    {
                      OFFSET 0 0 0
                    }
                  }
                }
              }
            }
            JOINT LeftShoulder
            {
              OFFSET 2.38034 -1.29275 -3.7523
              CHANNELS 3 Zrotation Xrotation Yrotation
              JOINT LeftArm
              {
                OFFSET 16.3182 6.10352e-005 0
                CHANNELS 3 Zrotation Xrotation Yrotation
                JOINT LeftForeArm
                {
                  OFFSET 27.0901 0 0
                  CHANNELS 3 Zrotation Xrotation Yrotation
                  JOINT LeftHand
                  {
                    OFFSET 24.5451 1.52588e-005 0
                    CHANNELS 3 Zrotation Xrotation Yrotation
                    End Site
                    {
                      OFFSET 0 0 0
                    }
                  }
                }
              }
            }
            JOINT Neck
            {
              OFFSET 5.0226 -0.0266342 0
              CHANNELS 3 Zrotation Xrotation Yrotation
              JOINT Head
              {
                OFFSET 6.69364 2.86102e-005 0
                CHANNELS 3 Zrotation Xrotation Yrotation
                End Site
                {
                  OFFSET 0 0 0
                }
              }
            }
          }
        }
      }
    }
  }
}
MOTION
Frames:	15
Frame Time:	0.0416667
-281.302 89.5657 276.224 90.9721 26.8537 85.6334 -176.775 -15.7662 82.2083 -0.054995 1.32101 0.764501 71.7593 0.502849 13.8633 31.6661 0.118168 -4.78587 167.328 3.35855 77.1277 -22.7031 -39.5311 8.49086 62.8048 -1.97828 -12.0747 55.2259 -4.883 10.9553 2.07048 5.20648 -89.7698 16.4833 4.2006 -0.243171 4.81908 4.19571 -0.428147 -17.7683 4.07912 1.03269 2.24435 4.07915 1.03269 113.006 -53.2106 -65.9655 27.3272 -2.34721 11.2646 -160.856 -31.8483 -137.782 10.0753 -6.43961 -66.887 -74.1622 -45.4282 102.776 -38.9611 -2.36677 -1.1747 1.33356 63.6525 -4.74241 4.20514 -0.215413 -6.45786 -51.0302 -4.87929 -6.08419 -1.63721 -7.67839 -13.0683 
-281.364 89.6017 276.237 90.8389 26.7873 85.598 -176.918 -15.5737 82.0007 -0.123809 1.11575 0.812975 71.6553 0.294418 13.6389 31.5474 0.100123 -4.39808 167.275 3.30741 77.0702 -22.2618 -39.6851 8.51218 63.0546 -2.39104 -12.0322 54.3247 -4.93855 9.61638 2.07286 5.20584 -89.7557 16.4829 4.21268 -0.216802 4.81867 4.19573 -0.40234 -17.7691 4.08271 1.06147 2.24353 4.08273 1.06147 112.993 -53.0554 -65.9542 28.5469 -5.35304 11.2868 -143.296 -43.2261 -126.186 34.1882 -17.1483 -55.8162 -74.1352 -45.5116 102.814 -38.9304 -2.5728 -1.55465 0.888729 64.3567 -4.04702 4.13046 -0.215744 -6.58184 -50.7869 -4.94469 -6.12103 -1.75547 -7.72134 -12.9618 
-281.511 89.6995 276.368 90.4355 26.8003 85.4277 -177.104 -15.1072 81.6528 -0.0202071 1.03643 0.705945 71.303 0.160061 13.5705 31.7061 0.0296741 -3.90008 167.153 3.21153 76.9623 -21.2265 -39.5143 8.4695 63.536 -3.36325 -12.7933 53.2797 -4.75757 9.69267 2.0499 5.20168 -89.6865 16.4852 4.20235 -0.075379 4.82099 4.19579 -0.260599 -17.7657 4.03039 1.19318 2.24695 4.0304 1.19317 112.853 -53.2951 -66.2084 28.5563 -5.54994 10.7311 -132.628 -49.0898 -118.724 38.5182 -16.0804 -48.6271 -74.1304 -45.0453 102.855 -39.3035 -2.48809 -1.94649 0.982237 64.1075 -4.05962 4.72082 -0.208451 -6.27144 -49.5805 -4.96912 -6.51961 -2.53693 -7.66878 -12.3959 
-281.727 89.8181 276.589 89.8541 26.8337 85.1604 -177.273 -14.3585 81.2459 -0.0129358 0.862521 0.477307 71.194 0.271718 13.558 31.4051 0.11395 -4.31642 166.942 3.03015 76.7968 -19.6401 -39.2391 8.43154 64.3301 -4.91148 -13.837 51.3758 -4.46953 9.54104 2.01974 5.20692 -89.5885 16.4707 4.19294 0.125022 4.8065 4.19426 -0.0599699 -17.7786 3.9612 1.38138 2.23401 3.96121 1.38138 112.556 -53.8646 -66.7548 28.4028 -5.66394 10.1116 -112.704 -55.2382 -103.125 43.11 -13.559 -38.0064 -74.2109 -44.6381 102.753 -39.6999 -2.41887 -2.68041 0.65055 63.6596 -3.48371 4.72784 -0.205129 -6.21749 -47.7708 -5.04849 -7.24256 -3.62598 -7.67818 -11.3843 
-282.017 90.0036 276.879 89.0749 26.9044 84.84 -177.756 -13.3281 80.4999 -0.00257361 0.487012 0.453314 70.5276 -0.0686441 13.3021 32.0995 -0.049139 -3.66138 166.461 2.69644 76.4901 -17.0894 -38.7472 8.60996 65.1978 -6.82213 -15.1111 48.7235 -3.96726 10.3643 1.97984 5.21604 -89.4713 16.4474 4.17415 0.366164 4.78313 4.18616 0.181783 -17.7996 3.87083 1.60558 2.213 3.87081 1.60557 112.11 -54.1836 -67.4688 28.2789 -4.34915 8.89824 -92.6087 -59.5833 -86.6497 38.0021 -9.19885 -30.876 -74.2476 -44.2717 102.72 -40.2336 -2.4819 -3.62585 0.526661 63.4577 -3.06505 4.43319 -0.193151 -6.09558 -45.2217 -5.16747 -7.9472 -5.23924 -7.60363 -10.3836 
-282.368 90.1902 277.243 88.1036 27.0141 84.5581 -177.825 -12.0224 80.075 -0.13797 0.46988 0.0430395 70.5052 0.173654 13.3837 31.5175 0.0936232 -4.28019 166.323 2.19008 76.521 -14.3426 -38.085 8.18333 66.4197 -9.21386 -15.9334 45.3141 -3.5227 9.07613 1.93395 5.22596 -89.3509 16.4222 4.14489 0.615464 4.75777 4.16796 0.432117 -17.822 3.76805 1.83437 2.19064 3.76806 1.83436 111.63 -54.4059 -68.2124 28.3897 -3.9218 7.9113 -69.3678 -59.5589 -67.1928 34.3526 -5.14818 -21.2757 -74.2452 -43.9625 102.746 -40.7085 -2.29647 -4.58468 0.632148 63.1616 -3.02279 4.20009 -0.212957 -6.50034 -42.046 -5.46248 -8.61606 -7.33189 -7.60471 -9.30066 
-282.798 90.1184 277.709 87.0868 27.1905 84.2408 -178.115 -10.6991 79.4482 -0.0983435 0.347929 -0.162964 70.1585 0.249265 13.5168 31.2649 0.175697 -4.7405 166.246 2.51454 76.493 -13.152 -37.2874 7.8255 68.5176 -12.606 -17.1976 41.3024 -2.87306 8.74738 1.88129 5.24354 -89.2129 16.3812 4.11137 0.902024 4.71659 4.14709 0.719894 -17.8594 3.65002 2.09737 2.15329 3.65003 2.09737 111.097 -54.7248 -69.0442 28.4926 -3.24754 6.82361 -50.7863 -57.5969 -51.7054 27.8146 -2.30238 -14.0051 -74.2437 -43.5854 102.775 -41.2198 -2.11077 -5.69914 0.32447 63.1186 -2.48363 4.20772 -0.243309 -7.03116 -38.1481 -5.74527 -9.493 -9.9857 -7.53246 -8.10267 
-283.254 89.9803 278.222 85.9502 27.4183 83.9653 -178.541 -9.21934 78.7171 -0.0234407 0.378331 -0.240048 69.3406 -0.0154269 13.6964 31.8317 0.0373549 -4.17934 166.175 2.83771 76.4918 -11.498 -37.0911 7.64586 69.7354 -15.9647 -19.6979 37.9105 -2.31639 9.83699 1.82072 5.2698 -89.071 16.3218 4.06414 1.19924 4.6568 4.11298 1.01893 -17.9144 3.51571 2.36638 2.09825 3.51571 2.36638 110.544 -55.2048 -69.9244 28.3353 -2.85561 5.86729 -36.9737 -53.9859 -40.6116 20.8354 -0.630306 -8.30769 -74.3236 -43.4487 102.654 -41.3243 -1.52351 -6.74354 0.147669 62.4062 -2.41386 3.8571 -0.227346 -6.88098 -33.9327 -6.1322 -10.5225 -12.6861 -7.59902 -6.42212 
-283.694 89.847 278.745 84.7751 27.7483 83.7919 -178.612 -7.72657 78.3123 -0.0721712 0.347934 -0.560078 68.9459 0.0575112 13.4225 31.706 0.0518633 -4.13693 165.953 3.11642 76.4336 -9.49475 -36.5163 7.60852 71.4182 -18.9998 -20.4146 34.021 -1.66443 8.96463 1.74525 5.31109 -88.943 16.2332 3.98014 1.47594 4.5677 4.04125 1.29909 -17.9979 3.35252 2.60475 2.01479 3.35252 2.60474 108.404 -56.568 -73.1902 27.2189 -2.79099 6.15139 -27.3061 -48.475 -33.955 15.0019 0.422002 -1.81348 -74.279 -43.1317 102.75 -41.7981 -1.3813 -7.67029 0.687458 61.5738 -2.80269 3.06373 -0.195716 -6.58557 -29.0755 -6.72798 -11.7243 -15.8126 -7.85827 -4.32933 
-284.171 89.7027 279.363 83.4751 28.1829 83.5252 -179.152 -5.95709 77.54 -0.0695193 0.280683 -0.501465 68.4389 0.331269 13.817 32.0434 0.030999 -4.45984 166.375 3.72964 76.64 -8.6967 -35.1684 6.63281 73.9561 -22.4365 -20.1759 31.0095 -0.993831 6.30691 1.66684 5.36093 -88.7843 16.1259 3.9056 1.81338 4.4598 3.98162 1.63953 -18.099 3.18015 2.90384 1.91369 3.18014 2.90384 108.064 -57.0515 -73.7272 27.2521 -1.6648 4.50887 -20.7088 -46.0684 -28.7065 9.82888 0.529854 1.00798 -74.6943 -42.9767 102.074 -42.0115 -1.17643 -8.53219 0.406161 60.7549 -2.28453 3.01759 -0.183538 -6.34358 -24.0776 -7.23587 -13.0044 -18.9513 -8.00791 -2.49925 
-284.517 89.5416 280.02 82.2549 28.8804 83.6034 -179.485 -4.39965 77.2079 0.00937432 0.72098 -0.401987 67.4982 0.31011 14.0382 33.1118 -0.186433 -3.77621 166.665 4.0769 77.0845 -7.41716 -34.2311 6.10712 74.9882 -25.1982 -21.2437 31.6914 -0.938134 3.44451 1.54313 5.41979 -88.7337 16.0059 3.68664 1.95633 4.33895 3.76917 1.79202 -18.2133 2.92842 2.97411 1.79937 2.92842 2.9741 107.954 -56.857 -73.8661 27.3995 -1.79675 3.4737 -16.6799 -43.0476 -25.7908 6.39815 0.468675 2.87416 -75.1899 -43.8492 101.209 -41.2577 -0.985891 -9.07308 -0.496001 59.7768 -1.46838 2.46196 -0.171517 -6.29558 -18.2669 -7.80882 -13.196 -22.8136 -8.10303 -0.580631 
-284.653 89.4091 280.634 80.9715 29.75 83.4264 -179.647 -2.94015 76.8531 0.0110917 1.17488 -0.627464 67.1083 0.589417 14.0217 33.2891 -0.212351 -3.77662 166.599 4.88219 76.9898 -6.54922 -33.4442 5.99929 75.8112 -26.9463 -21.5706 30.2493 -0.486987 1.63889 1.38574 5.4891 -88.7067 15.8662 3.389 2.06461 4.19823 3.47654 1.91337 -18.347 2.61205 2.9877 1.66568 2.61205 2.9877 107.751 -56.1053 -74.0844 27.8276 -1.89507 2.66253 -14.3523 -40.1967 -24.5257 3.78146 0.342624 4.62944 -75.6507 -45.3657 100.389 -40.3434 -1.0476 -9.77997 -1.02827 58.344 -0.896298 1.95782 -0.151537 -5.99881 -12.4169 -7.8923 -12.331 -26.474 -7.83892 1.29156 
-284.536 89.3942 280.939 79.9318 30.6127 83.4509 -179.805 -1.93038 76.6532 0.00997896 0.965498 -0.711891 66.7457 0.895528 13.2175 33.6052 -0.264467 -3.69539 165.744 5.01611 76.6267 -4.08076 -34.2246 6.94435 74.7302 -27.4812 -23.1507 28.7928 -0.124573 1.35269 1.25227 5.57923 -88.7431 15.6878 3.106 2.04248 4.01917 3.19287 1.90373 -18.522 2.34879 2.88144 1.49065 2.3488 2.88143 107.655 -55.2422 -74.1403 28.3494 -2.30917 1.65766 -12.0996 -37.5998 -22.9954 1.20046 0.136249 5.19439 -76.1481 -46.9991 99.5389 -39.552 -0.599317 -10.7393 -0.640715 55.3236 -1.47668 2.77234 -0.228464 -7.43903 -6.17625 -7.30354 -10.9757 -30.7087 -7.19113 3.34226 
-284.181 89.45 280.937 79.2461 31.4357 83.4099 179.365 -1.3757 76.1533 0.344984 1.24987 -0.579276 64.85 2.11218 14.4188 37.1424 -0.853586 -2.08558 163.996 5.2252 75.7207 -1.36124 -36.7132 9.17783 72.1961 -26.6787 -25.7079 29.2457 -0.348519 2.70863 1.16014 5.6897 -88.8479 15.4711 2.87028 1.87531 3.80211 2.95001 1.74712 -18.7384 2.17414 2.65118 1.27426 2.17413 2.65117 107.157 -54.2368 -74.779 28.8651 -2.20362 0.696255 -9.89428 -35.4943 -20.9515 -1.69097 -0.141917 5.95861 -76.7494 -49.116 98.5511 -38.2005 0.672648 -11.6162 2.16609 52.6139 -5.74718 2.8088 -0.23793 -7.63205 -1.80706 -5.71701 -8.70317 -33.295 -5.95512 4.99269 
-283.845 89.8467 280.967 79.2147 32.2604 83.8327 -179.252 2.52014 76.6429 -6.92126 0.937076 -1.84851 62.2979 4.88067 14.4571 42.3748 -1.47069 2.45221 163.01 4.87764 75.7779 -0.185198 -36.9992 10.5156 70.4498 -25.9937 -27.3186 29.691 -0.660093 5.34282 1.17482 5.94163 -88.9884 14.9713 2.82683 1.61483 3.30254 2.89515 1.48879 -19.2411 2.21093 2.38981 0.77155 2.21092 2.3898 107.191 -54.3748 -74.7433 28.4464 -4.18535 0.251387 -7.80086 -31.0008 -20.5586 -5.69286 -0.567277 7.28595 -76.8315 -49.8825 98.4125 -37.3438 2.87743 -13.6377 5.44317 50.1239 -10.7195 3.03966 -0.174702 -6.63592 3.1984 -3.83461 -7.3677 -35.283 -4.38549 6.43346 
